<?xml version="1.0" encoding="UTF-8" standalone="no"?>
<!-- Created with Inkscape (http://www.inkscape.org/) -->

<svg
   width="128"
   height="128"
   viewBox="0 0 33.866667 33.866665"
   version="1.1"
   id="svg10733"
   inkscape:version="1.2.1 (9c6d41e410, 2022-07-14, custom)"
   sodipodi:docname="cranberry-ninja-final.svg"
   inkscape:export-filename="cranberry-ninja-final-256.png"
   inkscape:export-xdpi="48"
   inkscape:export-ydpi="48"
   xmlns:inkscape="http://www.inkscape.org/namespaces/inkscape"
   xmlns:sodipodi="http://sodipodi.sourceforge.net/DTD/sodipodi-0.dtd"
   xmlns="http://www.w3.org/2000/svg"
   xmlns:svg="http://www.w3.org/2000/svg">
  <sodipodi:namedview
     id="namedview10735"
     pagecolor="#ffffff"
     bordercolor="#666666"
     borderopacity="1.0"
     inkscape:showpageshadow="2"
     inkscape:pageopacity="0.0"
     inkscape:pagecheckerboard="0"
     inkscape:deskcolor="#d1d1d1"
     inkscape:document-units="mm"
     showgrid="false"
     inkscape:zoom="1.5679012"
     inkscape:cx="14.988189"
     inkscape:cy="262.45276"
     inkscape:window-width="2558"
     inkscape:window-height="1412"
     inkscape:window-x="0"
     inkscape:window-y="720"
     inkscape:window-maximized="1"
     inkscape:current-layer="layer1" />
  <defs
     id="defs10730" />
  <g
     inkscape:label="Layer 1"
     inkscape:groupmode="layer"
     id="layer1"
     transform="translate(-23.612163,-54.773926)">
    <g
       id="g194"
       transform="matrix(0.18724626,0,0,0.1872457,20.868464,44.517744)">
      <path
         d="m 131.44255,194.06671 c 2.00575,-1.00274 2.80859,-1.23048 4.86326,-1.37948 2.18367,-0.15837 5.32979,-0.90877 8.05551,-1.92137 1.50838,-0.56037 5.26008,-2.38513 7.94346,-3.86357 1.16378,-0.64121 2.67937,-1.46828 3.36795,-1.83795 1.06413,-0.57126 1.43812,-0.84795 2.49264,-1.84403 1.59484,-1.50644 2.11199,-1.79567 3.22255,-1.8023 l 0.82563,-0.005 0.65682,0.69771 c 0.36125,0.38375 0.89904,0.95555 1.1951,1.27067 0.51766,0.55102 1.03957,0.88445 3.65143,2.33279 0.78075,0.43294 1.06108,0.52679 2.01189,0.67353 0.6076,0.0938 1.26687,0.21375 1.46506,0.26665 0.52979,0.14137 0.69737,-0.002 1.22216,-1.04712 0.56227,-1.11954 2.16996,-5.0458 2.67131,-6.52378 1.89808,-5.59559 3.30527,-12.56814 3.86804,-19.16587 0.18239,-2.13822 0.18239,-9.98148 0,-12.01838 -0.73303,-8.18655 -2.97523,-17.11192 -6.07049,-24.16449 -1.91876,-4.37188 -3.50658,-7.36259 -5.87423,-11.06424 -3.79135,-5.92749 -6.49501,-9.36583 -10.51653,-13.374184 -2.86656,-2.85717 -4.47537,-4.28376 -7.42074,-6.58016 -2.99906,-2.33827 -4.73709,-3.54274 -7.59384,-5.26261 -5.24203,-3.15588 -9.60469,-5.14134 -14.67323,-6.67779 -5.40049,-1.63709 -8.66197,-2.28243 -13.94689,-2.75965 -6.14025,-0.55446 -11.05867,-0.46268 -17.153975,0.32011 -9.05261,1.16257 -18.43294,4.37957 -26.68398,9.15131 -2.54207,1.47013 -3.46114,2.05309 -5.40033,3.42534 -3.51873,2.49003 -5.5566,4.05666 -7.51738,5.77903 -1.92375,1.68985 -6.38979,6.215884 -7.79416,7.898854 -4.23367,5.07357 -7.74314,10.6157 -10.54275,16.649 -1.63861,3.53129 -2.73266,6.54272 -3.95348,10.88209 -2.64003,9.38396 -3.43149,18.76164 -2.42635,28.74879 0.63509,6.31026 2.53005,14.63566 4.38646,19.27176 0.87283,2.17975 3.59787,7.82006 3.95138,8.17862 0.22188,0.22504 2.77697,-0.92225 4.91116,-2.20521 1.77743,-1.06852 2.84031,-1.57902 3.28753,-1.57902 0.49677,0 0.87377,0.18099 2.19677,1.05456 1.91041,1.26143 5.49461,2.98179 8.95251,4.29707 3.7778,1.43694 11.02658,3.33381 12.72541,3.32999 0.69937,-0.001 1.4758,-0.20531 2.36094,-0.61951 0.95049,-0.44479 2.19112,-0.78002 2.55909,-0.69149 0.48644,0.11702 1.00504,0.41143 2.97355,1.68805 1.02833,0.6669 1.95667,1.21254 2.06296,1.21254 0.11768,0 0.30557,-0.19105 0.48039,-0.48851 0.44456,-0.75635 0.94546,-1.27948 1.78923,-1.86859 0.51196,-0.35747 0.77451,-0.61069 0.77451,-0.74704 0,-0.23815 -0.50059,-0.7391 -1.91026,-1.9117 -2.62071,-2.17995 -5.43132,-4.95263 -7.37268,-7.27319 -2.2125,-2.64467 -6.62074,-8.91937 -8.02909,-11.42864 -2.5171,-4.48474 -5.09723,-11.36035 -5.8218,-15.51412 -0.2318,-1.32883 -0.8325,-6.85611 -1.27162,-11.70072 -0.42628,-4.70288 -0.4301,-4.73347 -0.68816,-5.5062 -0.22659,-0.67848 -0.42609,-2.78392 -0.42446,-4.47957 0.002,-1.47975 0.27149,-6.13957 0.43414,-7.49063 0.11437,-0.95 0.10717,-1.05367 -0.11996,-1.72605 -0.22029,-0.65219 -0.23558,-0.83407 -0.17315,-2.06007 0.14768,-2.90009 0.73563,-4.17621 2.31099,-5.01587 0.75799,-0.40401 0.84105,-0.5751 1.2563,-2.58773 0.61205,-2.96644 1.26978,-5.09053 2.33114,-7.52827 1.25654,-2.88601 2.45232,-5.10626 4.05803,-7.534694 0.67239,-1.0169 1.33991,-1.8313 2.586,-3.15498 0.92381,-0.98134 2.00952,-2.08763 2.4127,-2.45844 1.68313,-1.54797 4.78318,-3.92072 6.60988,-5.05914 0.37855,-0.23591 1.04565,-0.6535 1.48244,-0.92796 1.10675,-0.69544 5.1109,-2.67984 6.51216,-3.22733 2.67694,-1.04592 6.26156,-1.82746 10.21827,-2.22784 4.918465,-0.49771 6.696435,-0.52244 11.965425,-0.16646 5.30623,0.3585 9.07357,1.14415 12.17721,2.53948 1.96606,0.8839 6.04548,2.9861 7.5481,3.88967 2.07231,1.24615 3.73405,2.43148 5.71455,4.07623 2.05272,1.70472 2.73258,2.35394 4.07985,3.89596 0.5597,0.64063 1.61725,1.78423 2.35012,2.54133 1.42115,1.468194 1.58932,1.715324 3.44011,5.055424 1.59623,2.88067 2.66492,5.46909 3.0716,7.43946 0.0962,0.46591 0.26568,1.50001 0.37669,2.29799 0.23639,1.69909 0.45926,2.7181 0.69362,3.1713 0.0925,0.17891 0.51055,0.69136 0.92898,1.13878 0.85215,0.91121 1.31623,1.72075 2.02377,3.53026 0.92847,2.37456 1.37347,4.85882 1.36105,7.59805 -0.0115,2.54092 -0.46512,5.94741 -0.8489,6.37513 -0.0891,0.0994 -0.36313,0.2108 -0.60886,0.24765 -0.24573,0.0368 -0.50474,0.10281 -0.57557,0.14659 -0.0825,0.051 -0.2017,0.85624 -0.33171,2.24074 -0.11162,1.18863 -0.30138,3.18561 -0.42171,4.43775 -0.12033,1.25214 -0.31222,3.34873 -0.42643,4.65911 -0.50599,5.80535 -0.7162,7.57177 -1.32337,11.12076 -0.85748,5.01198 -1.30819,5.90972 -8.23897,16.41032 -1.45392,2.20278 -2.05783,2.94547 -5.03326,6.18986 -4.06763,4.43534 -5.67215,6.02834 -8.37934,8.31914 -1.41501,1.19738 -1.78975,1.55739 -1.79657,1.72598 -0.002,0.0478 0.48114,0.61962 1.07352,1.27066 0.59239,0.65106 1.16889,1.3386 1.28113,1.52787 0.11224,0.18928 0.25876,0.34414 0.32562,0.34414 0.0668,0 0.88411,-0.38123 1.81613,-0.84718 z M 85.399765,142.172 c 1.9798,-0.27537 4.34001,-1.00423 7.07606,-2.18521 1.31406,-0.5672 1.29706,-0.64626 -0.31766,-1.4773 -1.15286,-0.59334 -3.09958,-1.32311 -4.765,-1.78627 -0.61294,-0.17046 -4.69968,-1.23649 -9.31822,-2.43066 -2.82152,-0.72953 -4.0837,-0.90358 -7.0416,-0.97098 -2.00673,-0.0457 -2.41545,-0.0293 -2.59139,0.10357 -0.19105,0.14437 -0.1959,0.18365 -0.0568,0.45969 0.23148,0.45935 2.87084,3.04434 4.18357,4.09737 3.14678,2.52428 5.68294,3.75359 8.73583,4.23442 0.58959,0.0928 3.32069,0.0631 4.0952,-0.0447 z m 43.065295,-0.15027 c 1.82579,-0.31839 3.87553,-1.10563 7.1476,-2.74519 2.20962,-1.10719 3.57543,-1.95554 5.19391,-3.22612 0.66564,-0.52256 1.492,-1.10802 1.83634,-1.30103 0.94088,-0.52738 1.22049,-0.78087 1.05055,-0.95243 -0.19893,-0.20081 -3.77466,-0.16751 -6.3208,0.0589 -4.66569,0.41483 -12.97091,2.00838 -16.89372,3.24147 -1.9594,0.61591 -4.33698,1.8366 -4.33698,2.22667 0,0.18419 0.46886,0.39868 2.40432,1.09992 2.06886,0.74956 4.12038,1.3432 5.4844,1.58698 1.13753,0.2033 3.30047,0.20861 4.43438,0.0109 z M 87.420755,72.301496 c 0,0 8.03194,-1.39231 10.66717,-1.69324 3.102375,-0.35426 11.250025,-0.41755 15.089155,-0.11721 2.22925,0.17441 4.35338,0.44083 4.81637,0.60411 l 7.66685,1.17771 c 0.0779,0.14556 0.37636,0.26644 1.03993,0.42122 2.46028,0.57385 8.18292,2.79492 12.31373,4.77922 5.76032,2.76705 9.48911,5.10859 14.38664,9.03427 7.97731,6.39431 15.54201,14.963124 20.45127,23.165844 1.56961,2.62263 2.59595,4.60506 4.52269,8.73584 3.33951,7.15963 5.87969,15.17343 7.11559,22.44841 1.29637,7.63095 1.37611,16.45167 0.22025,24.36719 -0.49067,3.36015 -1.77862,9.16036 -2.73991,12.33906 -1.52205,5.03288 -4.10675,11.01171 -7.29457,16.87347 -0.70054,1.28814 -3.01347,5.03483 -4.18355,6.77689 -3.4016,5.06437 -8.57554,10.70963 -13.84198,15.10289 -2.73914,2.28498 -8.49315,6.20414 -11.34979,7.73054 -1.3011,0.69522 -1.74852,0.94513 -3.5276,1.97042 -2.18418,1.25876 -8.16545,3.83509 -11.82265,5.0924 -5.268,1.8111 -10.44784,2.99776 -17.13793,3.92614 -2.96674,0.4117 -8.37138,0.69224 -11.17126,0.57984 h -2e-5 c -7.215555,-0.28963 -15.183955,-1.71971 -22.183695,-3.98131 -1.60727,-0.51931 -7.98058,-3.23252 -10.74771,-4.57548 -5.68415,-2.75864 -13.14418,-7.86694 -18.61322,-12.74552 -6.94797,-6.19783 -11.755,-11.77305 -15.45417,-17.92378 -1.1237,-1.8684 -3.37456,-6.01694 -4.2195,-7.77691 -1.98314,-4.13079 -3.51092,-8.27892 -4.75792,-12.91843 -2.33119,-8.67331 -3.19268,-15.37689 -3.03458,-23.6132 0.0697,-3.6302 0.16057,-5.12138 0.5002,-8.20638 0.61711,-5.60545 1.81433,-11.15018 3.60104,-16.67748 2.39566,-7.41116 5.35874,-13.61565 9.60089,-20.10363 3.58905,-5.48912 8.89181,-11.592804 13.95627,-16.064194 3.55801,-3.14135 8.09413,-6.52355 11.80294,-8.80046 4.08626,-2.50862 12.01787,-6.29121 14.82037,-7.06782"
         style="display:inline;fill:#000000;stroke-width:0.105889"
         id="path3736-5-8"
         sodipodi:nodetypes="ssssssccssssscsssssssssssssssssssssssscssssssssssssscsssssssscssssssssscsssssssccsssssssscssssscssssscssccccsssscsssscccssccsssssssssssssssssssssssssssssc" />
      <path
         d="m 87.458055,72.272626 c 0,0 8.03194,-1.39231 10.66717,-1.69324 3.102375,-0.35426 11.250025,-0.41755 15.089155,-0.11721 2.22925,0.17441 4.35338,0.44083 4.81637,0.60411 l 7.66685,1.17771 c 0.0779,0.14556 0.37636,0.26644 1.03993,0.42122 2.46028,0.57385 8.18292,2.79492 12.31373,4.77922 5.76032,2.76705 9.48911,5.10859 14.38664,9.03427 7.97731,6.39431 15.54201,14.963124 20.45127,23.165854 1.56961,2.62263 2.59595,4.60506 4.52269,8.73584 3.33951,7.15963 5.87969,15.17343 7.11559,22.44841 1.29637,7.63095 1.37611,16.45167 0.22025,24.36719 -0.49067,3.36015 -1.77862,9.16036 -2.73991,12.33906 -1.52205,5.03288 -4.10675,11.01171 -7.29457,16.87347 -0.70054,1.28814 -3.01347,5.03483 -4.18355,6.77689 -3.4016,5.06437 -8.57554,10.70963 -13.84198,15.10289 -2.73914,2.28498 -8.49315,6.20414 -11.34979,7.73054 -1.3011,0.69522 -1.74852,0.94513 -3.5276,1.97042 -2.18418,1.25876 -8.16545,3.83509 -11.82265,5.0924 -5.268,1.8111 -10.44784,2.99776 -17.13793,3.92614 -2.96674,0.4117 -8.37138,0.69224 -11.17126,0.57984 h -2e-5 c -7.215555,-0.28963 -15.183955,-1.71971 -22.183695,-3.98131 -1.60727,-0.51931 -7.98058,-3.23252 -10.74772,-4.57548 -5.68414,-2.75864 -13.14417,-7.86694 -18.61322,-12.74552 -6.94796,-6.19783 -11.755,-11.77305 -15.45417,-17.92378 -1.12369,-1.8684 -3.37455,-6.01694 -4.21949,-7.77691 -1.98315,-4.13079 -3.51093,-8.27892 -4.75792,-12.91843 -2.33119,-8.67331 -3.19268,-15.37689 -3.03458,-23.6132 0.0697,-3.6302 0.16057,-5.12138 0.5002,-8.20638 0.6171,-5.60545 1.81433,-11.15018 3.60104,-16.67748 2.39566,-7.41116 5.35874,-13.61565 9.60089,-20.10363 3.58905,-5.48913 8.89181,-11.592814 13.95627,-16.064204 3.55801,-3.14135 8.09413,-6.52355 11.80294,-8.80046 4.08625,-2.50862 12.01787,-6.29121 14.82037,-7.06782"
         style="display:inline;fill:#000000;stroke-width:0.105889"
         id="path3736-7-3-68"
         sodipodi:nodetypes="cssccsssssssssssssssssssssssssssssc" />
      <path
         d="m 131.45534,194.07189 c 2.00575,-1.00274 2.80859,-1.23048 4.86326,-1.37948 2.18367,-0.15837 5.32979,-0.90878 8.05551,-1.92137 1.50838,-0.56038 5.26008,-2.38513 7.94346,-3.86358 1.16378,-0.64121 2.67937,-1.46827 3.36795,-1.83795 1.06413,-0.57126 1.43812,-0.84795 2.49264,-1.84403 1.59484,-1.50645 2.11199,-1.79568 3.22255,-1.80231 l 0.82563,-0.005 0.65682,0.69771 c 0.36125,0.38376 0.89904,0.95556 1.1951,1.27068 0.51766,0.55102 1.03957,0.88445 3.65143,2.33279 0.78075,0.43294 1.06108,0.52679 2.01189,0.67353 0.6076,0.0938 1.26687,0.21375 1.46506,0.26665 0.52979,0.14137 0.69737,-0.002 1.22216,-1.04712 0.56227,-1.11954 2.16996,-5.04581 2.67131,-6.52379 1.89808,-5.59559 3.30527,-12.56814 3.86804,-19.16587 0.18239,-2.13822 0.18239,-9.98148 0,-12.01838 -0.73303,-8.18655 -2.97523,-17.11192 -6.07049,-24.16449 -1.91876,-4.37188 -3.50658,-7.36259 -5.87423,-11.06424 -3.79135,-5.92749 -6.49501,-9.36583 -10.51653,-13.374184 -2.86656,-2.85717 -4.47537,-4.28376 -7.42074,-6.58016 -2.99906,-2.33827 -4.73709,-3.54274 -7.59384,-5.26261 -5.24203,-3.15588 -9.60469,-5.14134 -14.67323,-6.67779 -5.40049,-1.63709 -8.66197,-2.28243 -13.94688,-2.75965 -6.14025,-0.55446 -11.05867,-0.46268 -17.153985,0.32011 -9.0526,1.16257 -18.43293,4.37957 -26.68397,9.15131 -2.54207,1.47013 -3.46115,2.05309 -5.40033,3.42534 -3.51873,2.49003 -5.55661,4.05666 -7.51738,5.77903 -1.92375,1.68985 -6.38979,6.215884 -7.79416,7.898854 -4.23367,5.07357 -7.74315,10.6157 -10.54275,16.649 -1.63861,3.53129 -2.73267,6.54272 -3.95348,10.88209 -2.64004,9.38396 -3.4315,18.76164 -2.42635,28.74879 0.63509,6.31026 2.53004,14.63566 4.38646,19.27176 0.87282,2.17976 3.59786,7.82007 3.95138,8.17863 0.22188,0.22504 2.77697,-0.92225 4.91116,-2.20521 1.77743,-1.06852 2.8403,-1.57902 3.28752,-1.57902 0.49677,0 0.87378,0.18099 2.19678,1.05456 1.9104,1.26143 5.4946,2.98179 8.9525,4.29707 3.77781,1.43694 11.02659,3.33381 12.72541,3.32999 0.69938,-10e-4 1.47581,-0.20531 2.36095,-0.61951 0.95048,-0.44479 2.19111,-0.78002 2.55909,-0.69149 0.48643,0.11702 1.00503,0.41143 2.97354,1.68805 1.02833,0.6669 1.95667,1.21254 2.06297,1.21254 0.11768,0 0.30556,-0.19105 0.48039,-0.48851 0.44455,-0.75635 0.94546,-1.27948 1.78922,-1.86859 0.51196,-0.35747 0.77451,-0.61069 0.77451,-0.74704 0,-0.23815 -0.50058,-0.7391 -1.91025,-1.9117 -2.62072,-2.17995 -5.43132,-4.95263 -7.37269,-7.27319 -2.21249,-2.64468 -6.62074,-8.91938 -8.02909,-11.42865 -2.51709,-4.48474 -5.09722,-11.36035 -5.8218,-15.51412 -0.2318,-1.32883 -0.83249,-6.85611 -1.27162,-11.70072 -0.42628,-4.70288 -0.4301,-4.73347 -0.68816,-5.5062 -0.22658,-0.67848 -0.42608,-2.78392 -0.42445,-4.47957 0.002,-1.47975 0.27149,-6.13957 0.43414,-7.49063 0.11437,-0.95 0.10716,-1.05367 -0.11996,-1.72605 -0.2203,-0.65219 -0.23558,-0.83407 -0.17316,-2.06007 0.14768,-2.90009 0.73564,-4.17621 2.311,-5.01587 0.75798,-0.40401 0.84105,-0.5751 1.2563,-2.58773 0.61205,-2.96644 1.26978,-5.09053 2.33114,-7.52827 1.25653,-2.88601 2.45231,-5.10626 4.05802,-7.534694 0.67239,-1.0169 1.33992,-1.8313 2.586,-3.15498 0.92381,-0.98134 2.00953,-2.08763 2.4127,-2.45844 1.68313,-1.54797 4.78318,-3.92072 6.60988,-5.05914 0.37855,-0.23591 1.04566,-0.6535 1.48244,-0.92796 1.10676,-0.69544 5.11091,-2.67984 6.51217,-3.22733 2.67694,-1.04592 6.26156,-1.82746 10.21826,-2.22784 4.918475,-0.49771 6.696445,-0.52244 11.965435,-0.16646 5.30622,0.3585 9.07356,1.14415 12.1772,2.53948 1.96606,0.8839 6.04548,2.9861 7.5481,3.88967 2.07231,1.24615 3.73405,2.43148 5.71455,4.07623 2.05272,1.70472 2.73258,2.35394 4.07985,3.89596 0.5597,0.64063 1.61725,1.78423 2.35012,2.54133 1.42115,1.468194 1.58932,1.715324 3.44011,5.055424 1.59623,2.88067 2.66492,5.46909 3.0716,7.43946 0.0962,0.46591 0.26568,1.50001 0.37669,2.29799 0.23639,1.69909 0.45926,2.7181 0.69362,3.1713 0.0925,0.17891 0.51055,0.69136 0.92898,1.13878 0.85215,0.91121 1.31623,1.72075 2.02377,3.53026 0.92847,2.37456 1.37347,4.85882 1.36105,7.59805 -0.0115,2.54092 -0.46512,5.94741 -0.8489,6.37513 -0.0891,0.0994 -0.36313,0.2108 -0.60886,0.24765 -0.24573,0.0368 -0.50474,0.10281 -0.57557,0.14659 -0.0825,0.051 -0.2017,0.85624 -0.33171,2.24074 -0.11162,1.18863 -0.30138,3.18561 -0.42171,4.43775 -0.12033,1.25214 -0.31222,3.34873 -0.42643,4.65911 -0.50599,5.80535 -0.7162,7.57177 -1.32337,11.12076 -0.85748,5.01198 -1.30819,5.90972 -8.23897,16.41032 -1.45392,2.20278 -2.05783,2.94547 -5.03326,6.18986 -4.06763,4.43535 -5.67215,6.02835 -8.37934,8.31915 -1.41501,1.19738 -1.78975,1.55739 -1.79657,1.72598 -0.002,0.0478 0.48114,0.61962 1.07352,1.27066 0.59239,0.65106 1.16889,1.3386 1.28113,1.52787 0.11224,0.18928 0.25876,0.34414 0.32562,0.34414 0.0668,0 0.88411,-0.38123 1.81613,-0.84718 z"
         style="display:inline;fill:#df97a5;fill-opacity:1;stroke-width:0.105889"
         id="path5361-5-8" />
      <path
         d="m 110.35998,227.88149 c 0.0276,-0.0276 -0.14641,-1.53997 -0.38657,-3.36094 -0.53477,-4.05467 -0.7107,-5.65747 -0.86904,-7.91702 -0.0674,-0.96094 -0.15443,-1.8813 -0.19353,-2.04526 l -0.0711,-0.29809 -1.8514,-0.0406 c -1.01827,-0.0223 -2.45251,-0.11337 -3.18722,-0.20223 -0.7347,-0.0889 -1.783,-0.21122 -2.32955,-0.27192 -4.590485,-0.50979 -9.577295,-1.6295 -11.264935,-2.52939 -1.26798,-0.67611 -2.78317,-1.87036 -4.23555,-3.33839 -2.64336,-2.67185 -3.40373,-3.77766 -4.34875,-6.32444 -0.26724,-0.72019 -0.71735,-1.7899 -1.00025,-2.37716 -0.42178,-0.87555 -0.63423,-1.17868 -1.18039,-1.68433 -0.76915,-0.71211 -1.91167,-1.29973 -2.71115,-1.39442 -0.65882,-0.078 -1.06859,0.0462 -3.05593,0.9266 -2.32836,1.03146 -2.88696,1.05908 -3.92097,0.19384 -0.28215,-0.23608 -0.63276,-0.49299 -0.77914,-0.57091 -0.14638,-0.0779 -1.38528,-0.40956 -2.75311,-0.73701 -2.60005,-0.62245 -3.03657,-0.73438 -4.34001,-1.113 -3.89187,-1.13046 -10.03433,-3.6072 -11.66502,-4.70354 -0.51205,-0.34425 -1.00477,-0.59722 -1.16324,-0.59722 -0.3764,0 -1.63351,0.42073 -2.84328,0.95159 -1.51364,0.6642 -3.91561,1.94342 -3.91682,2.086 -0.003,0.34045 2.97645,4.69093 4.59124,6.70418 6.61004,8.24112 18.54972,17.39301 28.39205,21.76278 5.33445,2.36837 8.93248,3.61871 13.51844,4.69771 2.79482,0.65759 3.94926,0.88251 6.28276,1.22412 4.46888,0.65421 6.009865,0.81312 9.794705,1.01013 1.67782,0.0873 5.38386,0.0529 5.48777,-0.051 z m 6.76134,-0.84719 c 7.78743,-1.30965 17.66926,-4.71282 24.46135,-8.42416 4.65364,-2.54284 8.39837,-5.14317 12.7855,-8.87821 3.69774,-3.14811 7.45762,-7.1703 10.55215,-11.28832 1.6845,-2.24164 4.64994,-6.87541 4.64994,-7.26594 0,-0.0589 -0.34648,-0.26721 -0.76996,-0.46286 -1.11714,-0.51615 -3.17045,-1.75393 -5.25997,-3.17081 -1.64022,-1.11221 -1.85859,-1.23033 -2.15943,-1.16799 -0.51426,0.10657 -1.3722,0.61821 -2.82306,1.68361 -3.39561,2.49345 -6.47331,4.24379 -10.52477,5.98558 -3.55463,1.5282 -5.62739,2.11392 -11.44716,3.23474 -1.98012,0.38133 -3.78639,0.75152 -4.01391,0.82262 -0.46498,0.14529 -0.47733,0.1622 -0.86665,1.18815 -0.75518,1.99 -2.29545,4.70548 -3.62712,6.39457 -1.58297,2.00782 -5.0338,4.82309 -7.64036,6.23316 -1.39633,0.75538 -3.4873,1.42445 -5.92977,1.89741 l -0.4765,0.0923 0.0291,1.00356 c 0.0878,3.02897 1.11378,11.88242 1.41972,12.25105 0.0717,0.0864 0.23121,0.12276 0.39463,0.09 0.15089,-0.0303 0.71171,-0.12855 1.24629,-0.21844 z"
         style="display:inline;fill:#00784f;fill-opacity:1;stroke-width:0.105889"
         id="path430-6-4" />
      <g
         id="g3760-2-31"
         transform="matrix(0.4002096,0,0,0.4002096,25.321415,94.437336)"
         style="display:inline">
        <path
           d="m 112.15082,264.6476 c 7.01384,-0.66511 15.76589,-3.6141 22.55295,-7.59921 7.24668,-4.25495 16.45949,-11.3158 28.7419,-22.02828 5.2388,-4.56917 8.04836,-7.29681 15.36264,-14.91474 7.43008,-7.73856 9.43935,-10.18519 14.66378,-17.85565 2.14519,-3.14957 5.09943,-7.372 6.56498,-9.38323 5.64637,-7.7487 6.43961,-8.90641 7.48736,-10.92753 3.21845,-6.20848 5.2001,-18.64635 7.60275,-47.71885 0.61727,-7.46915 1.32255,-21.26709 1.11474,-21.80865 -0.31154,-0.81185 -2.32457,-0.32599 -5.86732,1.41611 -3.51808,1.72997 -4.61499,2.67354 -6.01337,5.17275 -0.77073,1.37745 -1.13183,1.72191 -2.72912,2.60338 -1.62139,0.89479 -4.75782,2.246 -8.98459,3.87069 -0.7276,0.27968 -3.90033,1.52106 -7.05048,2.75864 -13.99792,5.49922 -19.66902,6.79734 -29.70072,6.79851 -7.34296,7.9e-4 -10.4243,-0.79033 -21.72171,-5.57737 -2.96942,-1.25823 -5.28468,-2.19101 -7.58516,-3.05591 -4.689,-1.76291 -12.12656,-2.08597 -23.90026,-1.03812 -8.100926,0.72097 -12.054286,1.53116 -21.166656,4.3378 -7.24912,2.23275 -9.41551,2.83987 -12.8323,3.59619 -4.58507,1.01494 -10.83828,1.97476 -14.07014,2.15968 -1.58544,0.0907 -2.92342,0.23578 -2.9733,0.32238 -0.18223,0.31642 0.88915,25.97212 1.29379,30.98143 1.57743,19.52797 2.4765,26.85645 4.26846,34.7927 1.5245,6.75172 1.8463,8.53287 1.58794,8.78917 -0.29789,0.29551 -1.27472,-1.00229 -2.93121,-3.89438 -2.04764,-3.57497 -2.7739,-5.2846 -4.89959,-11.53361 -5.14641,-15.12927 -6.76682,-22.95493 -7.66496,-37.01743 -1.10493,-17.30016 -1.94322,-21.71737 -4.70075,-24.76963 -1.45982,-1.61585 -2.70819,-2.14438 -5.06495,-2.14438 -2.36651,0 -3.768131,-0.52949 -7.992671,-3.01942 -4.70433,-2.7727 -7.52394,-5.30246 -11.46314,-10.28472 -2.49825,-3.15977 -5.5585202,-6.36748 -6.5984252,-6.91632 -0.679265,-0.3585 -0.799256,-0.35364 -1.245841,0.0505 -1.103021,0.99822 -1.444593,2.86122 -1.404617,7.66103 0.08066,9.68427 2.093751,31.09605 3.706463,39.42292 0.76667,3.95852 3.8811502,15.03662 5.4300802,19.31459 1.39569,3.85474 5.53967,12.20814 7.94673,16.01893 4.04946,6.41099 5.67239,8.40587 15.235331,18.72681 3.32734,3.59108 6.9274,7.54129 8.00015,8.77821 1.07274,1.23693 5.06466,5.40412 8.87094,9.26042 3.80628,3.8563 8.15806,8.37419 9.67063,10.03977 1.51257,1.66555 4.16766,4.2254 5.90019,5.68854 1.73254,1.46312 5.00676,4.25977 7.27604,6.21478 7.19713,6.20035 9.40534,7.59319 14.87994,9.38574 4.30036,1.40804 12.184436,3.16439 15.307496,3.41006 0.65484,0.0515 1.42875,0.11435 1.71979,0.13967 0.29104,0.0254 1.81033,-0.0755 3.37621,-0.22399 z"
           style="fill:#9e0d0b;fill-opacity:1;stroke-width:0.264583"
           id="path1112-9-4"
           transform="translate(92.181992,-7.1146694)" />
        <path
           d="m 221.85399,100.14949 c -0.0228,-1.732041 -0.2267,-4.756511 -0.45316,-6.721042 -0.22643,-1.964532 -0.65473,-5.953125 -0.95173,-8.863542 -0.71681,-7.024242 -1.33686,-12.00597 -1.57419,-12.647529 -0.35798,-0.967746 -7.32346,-3.200483 -15.40833,-4.93905 -12.38448,-2.66315 -24.46493,-4.271213 -48.64309,-6.475015 -22.37959,-2.039863 -47.5022,-2.982899 -72.231237,-2.711368 -14.73669,0.161814 -21.73898,0.442817 -31.61771,1.268825 -13.13584,1.098354 -17.91585,1.699329 -27.38437,3.442944 -11.71505,2.157309 -15.1844101,3.029058 -16.0866201,4.042095 -1.53823,1.727165 -4.32637,14.485885 -5.4699,25.030556 -0.22883,2.110052 -0.53238,4.633299 -0.67455,5.607217 -0.44009003,3.014529 -0.42959003,3.027289 1.48951,1.810234 1.6217,-1.028451 3.88654,-1.757061 6.98323,-2.246535 4.5579101,-0.720442 15.0766701,-1.48351 23.8124901,-1.727443 20.766,-0.579856 92.432527,-0.873173 109.405207,-0.447773 22.35242,0.560234 26.41729,0.718936 38.62916,1.508181 8.51167,0.550103 20.8702,2.150033 28.63046,3.706494 4.56581,0.915751 6.24779,1.423101 9.07266,2.736661 1.09141,0.5075 2.10344,0.88954 2.24896,0.84899 0.16047,-0.0447 0.24829,-1.31302 0.22321,-3.2229 z"
           style="fill:#9e0d0b;fill-opacity:1;stroke-width:0.264583"
           id="path2103-1-9"
           transform="translate(92.181992,-7.1146694)" />
        <path
           d="m 211.05418,62.047621 c 0,-0.857062 -1.35988,-7.785991 -2.0923,-10.660731 -1.11019,-4.357553 -2.18487,-7.150441 -4.67251,-12.143041 -4.25598,-8.541619 -7.16399,-12.426667 -15.56853,-20.799385 -6.22978,-6.206165 -9.51103,-8.9194166 -16.19893,-13.3947393 -5.00552,-3.349517 -8.39595,-5.25364101 -14.07054,-7.902255 -4.63376,-2.162789 -5.60552,-2.454759 -5.60552,-1.684184 0,0.237955 1.36036,3.06569 3.02302,6.283854 3.15,6.0969787 4.18132,8.4307833 6.12519,13.8606603 2.48772,6.948984 3.78793,12.737959 6.20016,27.604796 1.51845,9.358254 2.05878,11.435389 3.11648,11.980634 0.3946,0.203415 5.42041,1.164826 11.16848,2.136466 11.82034,1.99808 16.84793,2.933961 22.75417,4.235656 5.13371,1.131432 5.09164,1.123852 5.4901,0.98919 0.1819,-0.06147 0.33073,-0.289587 0.33073,-0.506921 z"
           style="fill:#9e0d0b;fill-opacity:1;stroke-width:0.264583"
           id="path2956-2-2"
           transform="translate(92.181992,-7.1146694)" />
        <path
           d="m 118.64073,295.36572 c 13.52212,-1.76586 22.49551,-4.0767 29.20947,-7.52211 6.44991,-3.30988 12.52252,-11.9807 14.18344,-20.25189 0.82047,-4.08591 -0.83582,-4.70736 -7.87151,-2.95331 -2.0465,0.5102 -4.29781,1.00129 -5.00293,1.09135 -1.19496,0.15259 -1.25336,0.13346 -0.86016,-0.28172 0.39378,-0.41577 4.1461,-2.04365 6.85419,-2.97352 1.38441,-0.47538 1.85208,-0.80476 1.85208,-1.30432 0,-0.47985 -1.9014,-1.42819 -2.86347,-1.42819 -1.59584,0 -7.26692,2.7492 -11.95319,5.79461 -3.14844,2.04605 -10.66964,5.79313 -14.13105,7.04014 -7.17225,2.58386 -12.34834,3.52904 -20.52937,3.74875 -6.52911,0.17533 -9.560627,-0.0581 -14.419787,-1.11051 -7.24224,-1.56851 -10.77437,-3.47306 -19.29631,-10.40482 -3.40065,-2.76606 -7.57911,-5.59734 -8.26073,-5.59734 -0.19607,0 -0.3565,0.23138 -0.3565,0.51416 0,0.28279 -0.25708,0.69424 -0.57129,0.91432 -0.73091,0.51195 -0.40738,0.94779 1.29893,1.74985 1.11216,0.52277 1.18071,0.60561 0.71633,0.86548 -0.28924,0.16187 -2.42128,0.32938 -4.88136,0.38351 -5.91212,0.13013 -5.55844,0.008 -5.55844,1.91043 0,4.58544 2.44559,11.51906 5.56747,15.78462 2.62342,3.58449 7.13996,7.64595 10.22618,9.1958 3.58548,1.80054 14.07433,3.92851 24.29072,4.92802 1.74625,0.17085 3.35359,0.35235 3.57188,0.40333 1.194817,0.27903 15.802917,-0.10715 18.785407,-0.49664 z"
           style="fill:#9e0d0b;fill-opacity:1;stroke-width:0.264583"
           id="path3144-7-0"
           transform="translate(92.181992,-7.1146694)" />
      </g>
      <g
         id="g3754-0-6"
         transform="matrix(0.4002096,0,0,0.4002096,25.321415,94.437336)"
         style="display:inline">
        <path
           d="m 13.968292,58.772128 c 5.20554,-1.536517 9.43807,-2.345676 18.87944,-3.609297 4.9793,-0.666425 9.77514,-1.508937 10.11331,-1.776664 0.38293,-0.303167 0.41967,-0.520112 1.13221,-6.685414 1.43324,-12.401117 3.55259,-20.337206 8.52019,-31.904509 2.32076,-5.4040107 5.93815,-10.3941107 10.44106,-14.40320171 4.33549,-3.86002699 5.46563,-4.63139899 7.58375,-5.17622799 1.54986,-0.398661 1.95935,-0.425416 2.23851,-0.146249 0.46213,0.462127 0.0921,1.335479 -1.13641,2.682272 -5.48763,6.01595 -9.28277,12.7259997 -12.53409,22.1610567 -2.46375,7.1496 -4.52618,17.636398 -5.49075,27.918712 -0.32592,3.47427 -0.37289,4.916794 -0.16681,5.12287 0.20607,0.206076 2.91962,0.205327 9.63669,-0.0027 5.14241,-0.159227 13.81468,-0.364623 19.27171,-0.45643 10.47642,-0.176255 39.798488,0.255447 47.624998,0.701172 2.54661,0.145031 7.72583,0.438729 11.50937,0.652661 3.78354,0.213934 9.45475,0.5697 12.60269,0.790596 3.14796,0.220895 5.91616,0.327715 6.15156,0.237376 0.58475,-0.224385 0.56147,-2.070854 -0.095,-7.531131 -0.28765,-2.392754 -0.59462,-5.005306 -0.68215,-5.80567 -0.77511,-7.088346 -2.58936,-16.045917 -4.32106,-21.334797 -3.4736,-10.6090237 -11.9617,-27.4779285 -14.77404,-29.3613435 -3.28406,-2.1993315 -19.74461,-3.7891805 -35.86734,-3.4642645 -7.573198,0.152623 -11.846128,0.511662 -18.047988,1.516515 -6.3418,1.027528 -8.30226,1.5477895 -10.84792,2.8788025 -1.30968,0.684779 -2.97656,1.463516 -3.70416,1.730528 -3.51284,1.2891238 -6.827,3.0952468 -13.57011,7.39534179 -0.47857,0.30517901 -1.2093,1.10042101 -1.62386,1.76720301 -0.93729,1.507551 -2.2758,2.19198 -2.82308,1.44354 -0.22769,-0.311383 -0.29834,-0.866767 -0.2008,-1.578409 0.20384,-1.487159 -0.30943,-1.95441101 -1.48124,-1.348444 -6.27601,3.245451 -16.16581,12.0745697 -23.25221,20.7584117 -8.57356,10.506246 -12.25185,17.665536 -16.68828,32.481495 -0.74078,2.473936 -1.34688,4.575569 -1.34688,4.670298 0,0.315167 1.24746,0.178054 2.94869,-0.324099 z"
           style="fill:#d51b0c;fill-opacity:1;stroke-width:0.264583"
           id="path3119-9-8"
           transform="translate(92.181992,-7.1146694)" />
        <path
           d="m 85.261421,243.42121 c 0.44888,-0.3777 0.92642,-0.68673 1.06122,-0.68673 0.38659,0 4.7913,-3.6427 5.63744,-4.66217 0.8965,-1.08016 2.03108,-1.68233 4.39563,-2.33294 0.94588,-0.26024 2.01809,-0.56242 2.38268,-0.67146 0.36458,-0.10906 1.02393,-0.14528 1.465209,-0.0805 0.9553,0.1402 3.87274,-0.57338 4.8509,-1.18647 0.38165,-0.23924 1.12469,-0.79759 1.65121,-1.24079 0.52649,-0.44323 1.3554,-1.10352 1.842,-1.46733 0.4866,-0.3638 2.29971,-1.85208 4.02915,-3.30729 1.72948,-1.45521 3.70555,-3.00302 4.39127,-3.43958 0.68574,-0.43656 1.76927,-1.1807 2.40786,-1.65365 0.8653,-0.64084 1.43682,-0.85989 2.24362,-0.85989 1.06407,0 1.40253,0.13991 4.42111,1.82745 1.49632,0.83656 1.51685,0.83984 2.93436,0.46969 0.78679,-0.20548 2.58688,-1.10149 4.01076,-1.99642 1.42082,-0.89299 2.70558,-1.62364 2.85499,-1.62364 0.4309,0 8.35078,-8.11046 10.33846,-10.58725 2.45173,-3.05501 4.01677,-5.6874 7.07636,-11.90233 1.75929,-3.57362 3.42622,-5.61351 4.99348,-6.11069 1.10278,-0.34985 3.13351,-1.56897 4.67654,-2.80752 0.59706,-0.47926 1.21213,-0.87137 1.36684,-0.87137 0.82441,0 3.01421,-3.86366 5.62337,-9.92188 0.12536,-0.29104 0.71107,-1.578 1.30156,-2.85991 0.59053,-1.28193 1.07368,-2.37405 1.07368,-2.42697 0,-0.0529 0.59532,-1.36477 1.32292,-2.9152 0.7276,-1.55043 1.32292,-2.87272 1.32292,-2.93839 0,-0.0656 0.41672,-0.99753 0.92604,-2.07084 0.50932,-1.07328 0.92604,-2.08489 0.92604,-2.24803 0,-0.16311 0.4095,-1.10971 0.90996,-2.10354 0.50048,-0.9938 1.26312,-2.80655 1.69476,-4.02829 1.16313,-3.29227 1.96384,-5.37221 3.14685,-8.17446 0.58364,-1.38245 1.30471,-3.22792 1.60236,-4.10104 0.9026,-2.64744 2.33477,-5.89467 4.75478,-10.78078 1.67785,-3.38765 4.15779,-6.68795 5.35958,-7.13252 0.76431,-0.28274 0.69782,-1.08921 -0.0719,-0.87236 -0.81632,0.22998 -4.68368,1.69938 -10.51718,3.99601 -12.14361,4.7809 -17.79712,6.02954 -27.38438,6.04813 -7.93101,0.0154 -10.18386,-0.55454 -21.96041,-5.55555 -7.19143,-3.05389 -9.06365,-3.69249 -12.38486,-4.22434 -4.93487,-0.79024 -17.18981,-0.40463 -25.596659,0.80541 -4.32316,0.62226 -7.99004,1.5272 -15.54697,3.83678 -10.9619,3.35023 -18.90325,5.03396 -25.68561,5.44589 l -2.94557,0.17891 0.13457,1.61366 c 0.074,0.88752 0.25699,5.78086 0.40661,10.87409 0.26666,9.07775 0.69579,16.29241 1.45572,24.47397 0.2095,2.25557 0.50989,5.64885 0.66753,7.54062 0.85844,10.30203 1.83087,16.25105 4.23279,25.8949 0.88571,3.55616 0.99466,5.12874 0.37191,5.36771 -0.59284,0.22749 -1.59058,-0.81433 -2.8273,-2.95219 -0.92289,-1.59536 -2.34028,-3.59614 -3.18644,-4.49792 -0.15515,-0.16534 -0.2019,0.82703 -0.12466,2.64583 0.11245,2.6479 0.2223,3.15513 1.21773,5.62327 1.07869,2.67457 1.72522,3.96018 3.82501,7.6059 4.44245,7.71311 13.65094,18.71482 18.30703,21.87207 2.41574,1.63809 3.85247,2.08293 6.28177,1.94498 1.1695,-0.0664 1.70715,-0.24437 2.3354,-0.77303 z m -46.67551,-93.48712 c 1.06358,-1.16116 1.49561,-2.5802 1.91382,-6.28607 0.38665,-3.42621 0.36986,-4.7166 -0.0836,-6.41985 -0.99419,-3.73469 -3.40332,-5.87724 -6.61362,-5.8818 -0.8846,-0.001 -1.20507,0.17337 -2.17414,1.18474 -1.49504,1.56031 -2.10141,3.49784 -1.71956,5.49448 0.14611,0.764 0.3368,1.98441 0.42375,2.71201 0.4175,3.49355 1.48326,6.14932 3.25848,8.11984 2.10234,2.33361 3.55641,2.64704 4.99483,1.07665 z"
           style="fill:#d51b0c;fill-opacity:1;stroke-width:0.264583"
           id="path3375-3-9"
           transform="translate(92.181992,-7.1146694)" />
      </g>
      <path
         d="m 112.6511,86.455086 c 3.3583,-0.37876 6.53486,-1.49731 9.02589,-3.17823 5.08469,-3.43111 8.65612,-10.10553 10.62725,-19.86061 0.475,-2.35077 1.0069,-6.18957 1.07527,-7.76041 l 0.0384,-0.88191 -1.03849,0.0247 c -2.33132,0.0555 -7.32358,0.14166 -10.52246,1.68616 -8.16307,3.94135 -18.72623,8.90686 -20.06864,18.35156 -0.20388,1.43445 -0.23198,4.78847 -0.0538,6.4288 0.17081,1.57294 0.67741,4.04789 0.86795,4.24038 0.188,0.1899 1.54337,0.51606 3.2412,0.77998 1.4744,0.22918 5.40978,0.32722 6.8075,0.16958 z"
         style="display:inline;fill:#000000;stroke-width:0.117587"
         id="path3904-3-6-2" />
      <path
         d="m 113.23353,83.500306 c 2.67632,-0.30185 5.20782,-1.19325 7.19299,-2.53282 4.05213,-2.73436 6.89831,-8.0534 8.46916,-15.8275 0.37854,-1.8734 0.80243,-4.93265 0.85692,-6.1845 l 0.0306,-0.70282 -0.82761,0.0197 c -1.85789,0.0442 -5.83637,0.11289 -8.38565,1.34375 -6.50539,3.14098 -14.92347,7.09814 -15.99328,14.62489 -0.16248,1.14315 -0.18487,3.81607 -0.0429,5.1233 0.13613,1.25352 0.53985,3.22588 0.6917,3.37928 0.14982,0.15134 1.22995,0.41126 2.583,0.62159 1.17499,0.18264 4.31121,0.26077 5.42509,0.13514 z"
         style="display:inline;fill:#00d022;stroke-width:0.0937086"
         id="path3904-0-6" />
      <path
         d="m 85.388905,142.1661 c 1.9798,-0.27537 4.34001,-1.00423 7.07606,-2.18521 1.31406,-0.5672 1.29706,-0.64626 -0.31766,-1.4773 -1.15286,-0.59334 -3.09958,-1.32311 -4.765,-1.78627 -0.61294,-0.17046 -4.69968,-1.23649 -9.31822,-2.43066 -2.82152,-0.72953 -4.0837,-0.90358 -7.0416,-0.97098 -2.00673,-0.0457 -2.41545,-0.0293 -2.59139,0.10357 -0.19105,0.14437 -0.1959,0.18365 -0.0568,0.45969 0.23148,0.45935 2.87084,3.04434 4.18357,4.09737 3.14678,2.52428 5.68294,3.75359 8.73583,4.23442 0.58959,0.0928 3.32069,0.0631 4.0952,-0.0447 z m 43.065305,-0.15027 c 1.82579,-0.31839 3.87553,-1.10563 7.1476,-2.74519 2.20962,-1.10719 3.57543,-1.95554 5.19391,-3.22612 0.66564,-0.52256 1.492,-1.10802 1.83634,-1.30103 0.94088,-0.52738 1.22049,-0.78087 1.05055,-0.95243 -0.19893,-0.20081 -3.77466,-0.16751 -6.3208,0.0589 -4.66569,0.41483 -12.97091,2.00838 -16.89372,3.24147 -1.9594,0.61591 -4.33698,1.8366 -4.33698,2.22667 0,0.18419 0.46886,0.39868 2.40432,1.09992 2.06886,0.74956 4.12038,1.3432 5.4844,1.58698 1.13753,0.2033 3.30047,0.20861 4.43438,0.0109 z"
         style="display:inline;fill:#ffffff;stroke-width:0.105889"
         id="path5430-6-6" />
    </g>
  </g>
</svg>
